<svg width="19" height="19" xmlns="http://www.w3.org/2000/svg">
 <g>
  <title>background</title>
  <rect x="-1" y="-1" width="3.532257" height="3.532257" id="canvas_background" fill="none"/>
 </g>

 <g>
  <title>Layer 1</title>
  <path d="m9.40625,18.9167c-0.503,-0.0006 -0.98563,-0.1989 -1.34375,-0.5521l-6.67708,-6.6875c-0.17134,-0.1704 -0.27813,-0.395 -0.30208,-0.6354l-0.91667,-9.73961c-0.01403,-0.15257 0.00577,-0.30636 0.05798,-0.4504c0.05222,-0.14405 0.13556,-0.2748 0.2441,-0.38294c0.10814,-0.10854 0.23889,-0.19188 0.38294,-0.2441c0.14404,-0.05221 0.29783,-0.07201 0.4504,-0.05798l9.73961,0.91667c0.2404,0.02395 0.465,0.13074 0.6354,0.30208l6.6875,6.67708c0.3543,0.35538 0.5533,0.83673 0.5533,1.33854c0,0.50182 -0.199,0.98316 -0.5533,1.33856l-7.625,7.625c-0.3543,0.3526 -0.8335,0.551 -1.33335,0.5521zm-6.25,-8.4479l6.25,6.25l7.34375,-7.3438l-6.25,-6.25l-8.13541,-0.76041l0.79166,8.10421z" fill="#FFC700" id="svg_1"/>
  <g id="svg_6" stroke="null">
   <path d="m6.950352,8.65973c1.055971,0 1.912015,-0.856044 1.912015,-1.912015c0,-1.055971 -0.856044,-1.912015 -1.912015,-1.912015c-1.055971,0 -1.912015,0.856044 -1.912015,1.912015c0,1.055971 0.856044,1.912015 1.912015,1.912015z" fill="#FFC700" id="svg_5" stroke="null"/>
  </g>
 </g>
</svg>